<?xml version="1.0" encoding="UTF-8"?> <svg xmlns="http://www.w3.org/2000/svg" xmlns:xlink="http://www.w3.org/1999/xlink" width="11px" height="7px" viewBox="0 0 11 7" version="1.1"><title>chevron</title><g id="Symbols" stroke="none" stroke-width="1" fill="none" fill-rule="evenodd"><g id="Time-Off-Request-Update-2" transform="translate(-292.000000, -578.000000)" fill="#808FA3" stroke="#808FA3" stroke-width="0.3"><g id="duration-picker" transform="translate(69.000000, 534.000000)"><path d="M231.272529,51.22393 C231.528658,51.4702452 231.536702,51.8776065 231.290387,52.1338965 C231.164092,52.2651788 230.995324,52.3313026 230.826394,52.3313026 C230.665831,52.3313026 230.505267,52.2717751 230.380421,52.1517548 L226.197406,48.1296255 C226.071272,48.0083181 226,47.8406757 226,47.6656327 C226,47.4907505 226.071272,47.3231081 226.197406,47.2018007 L230.380421,43.1796714 C230.63655,42.9333562 231.044072,42.9412396 231.290387,43.1975297 C231.536702,43.4538198 231.528658,43.861181 231.272529,44.1074962 L227.572009,47.6656327 L231.272529,51.22393 Z" id="chevron" transform="translate(228.735000, 47.665651) scale(-1, 1) rotate(-90.000000) translate(-228.735000, -47.665651) "></path></g></g></g></svg> 